<?xml version="1.0" encoding="UTF-8"?>
<!DOCTYPE svg PUBLIC "-//W3C//DTD SVG 1.1//EN" "http://www.w3.org/Graphics/SVG/1.1/DTD/svg11.dtd">
<svg version="1.1" xmlns="http://www.w3.org/2000/svg" xmlns:xlink="http://www.w3.org/1999/xlink" x="0" y="0" width="135" height="40" viewBox="0, 0, 135, 40">
  <g id="artwork" transform="translate(-10, -10)">
    <g>
      <path d="M140,50 L15,50 C12.25,50 10,47.75 10,45 L10,15 C10,12.25 12.25,10 15,10 L140,10 C142.75,10 145,12.25 145,15 L145,45 C145,47.75 142.75,50 140,50" fill="#000000"/>
      <path d="M140,10 L15,10 C12.25,10 10,12.25 10,15 L10,45 C10,47.75 12.25,50 15,50 L140,50 C142.75,50 145,47.75 145,45 L145,15 C145,12.25 142.75,10 140,10 M140,10.8 C142.316,10.8 144.2,12.684 144.2,15 L144.2,45 C144.2,47.316 142.316,49.2 140,49.2 L15,49.2 C12.684,49.2 10.8,47.316 10.8,45 L10.8,15 C10.8,12.684 12.684,10.8 15,10.8 z" fill="#B5B5B5"/>
      <path d="M57.418,20.243 C57.418,21.081 57.17,21.748 56.673,22.246 C56.108,22.838 55.373,23.134 54.469,23.134 C53.602,23.134 52.866,22.834 52.261,22.233 C51.654,21.633 51.352,20.888 51.352,20 C51.352,19.111 51.654,18.367 52.261,17.766 C52.866,17.166 53.602,16.865 54.469,16.865 C54.898,16.865 55.31,16.949 55.7,17.117 C56.091,17.285 56.404,17.508 56.639,17.787 L56.111,18.315 C55.714,17.841 55.167,17.603 54.469,17.603 C53.837,17.603 53.291,17.825 52.83,18.269 C52.369,18.714 52.139,19.29 52.139,20 C52.139,20.709 52.369,21.286 52.83,21.73 C53.291,22.175 53.837,22.396 54.469,22.396 C55.139,22.396 55.697,22.173 56.145,21.726 C56.435,21.435 56.602,21.031 56.647,20.511 L54.469,20.511 L54.469,19.79 L57.376,19.79 C57.404,19.947 57.418,20.098 57.418,20.243" fill="#FFFFFF"/>
      <path d="M57.418,20.243 C57.418,21.081 57.17,21.748 56.673,22.246 C56.108,22.838 55.373,23.134 54.469,23.134 C53.602,23.134 52.866,22.834 52.261,22.233 C51.654,21.633 51.352,20.888 51.352,20 C51.352,19.111 51.654,18.367 52.261,17.766 C52.866,17.166 53.602,16.865 54.469,16.865 C54.898,16.865 55.31,16.949 55.7,17.117 C56.091,17.285 56.404,17.508 56.639,17.787 L56.111,18.315 C55.714,17.841 55.167,17.603 54.469,17.603 C53.837,17.603 53.291,17.825 52.83,18.269 C52.369,18.714 52.139,19.29 52.139,20 C52.139,20.709 52.369,21.286 52.83,21.73 C53.291,22.175 53.837,22.396 54.469,22.396 C55.139,22.396 55.697,22.173 56.145,21.726 C56.435,21.435 56.602,21.031 56.647,20.511 L54.469,20.511 L54.469,19.79 L57.376,19.79 C57.404,19.947 57.418,20.098 57.418,20.243 z" fill-opacity="0" stroke="#FFFFFF" stroke-width="0.2"/>
      <path d="M62.028,17.737 L59.296,17.737 L59.296,19.639 L61.76,19.639 L61.76,20.36 L59.296,20.36 L59.296,22.262 L62.028,22.262 L62.028,23 L58.525,23 L58.525,17 L62.028,17 z" fill="#FFFFFF"/>
      <path d="M62.028,17.737 L59.296,17.737 L59.296,19.639 L61.76,19.639 L61.76,20.36 L59.296,20.36 L59.296,22.262 L62.028,22.262 L62.028,23 L58.525,23 L58.525,17 L62.028,17 L62.028,17.737 z" fill-opacity="0" stroke="#FFFFFF" stroke-width="0.2"/>
      <path d="M65.279,23 L64.508,23 L64.508,17.737 L62.832,17.737 L62.832,17 L66.955,17 L66.955,17.737 L65.279,17.737 z" fill="#FFFFFF"/>
      <path d="M65.279,23 L64.508,23 L64.508,17.737 L62.832,17.737 L62.832,17 L66.955,17 L66.955,17.737 L65.279,17.737 L65.279,23 z" fill-opacity="0" stroke="#FFFFFF" stroke-width="0.2"/>
      <g>
        <path d="M69.938,17 L70.709,17 L70.709,23 L69.938,23 z" fill="#FFFFFF"/>
        <path d="M69.938,17 L70.709,17 L70.709,23 L69.938,23 z" fill-opacity="0" stroke="#FFFFFF" stroke-width="0.2"/>
      </g>
      <path d="M74.128,23 L73.357,23 L73.357,17.737 L71.681,17.737 L71.681,17 L75.804,17 L75.804,17.737 L74.128,17.737 z" fill="#FFFFFF"/>
      <path d="M74.128,23 L73.357,23 L73.357,17.737 L71.681,17.737 L71.681,17 L75.804,17 L75.804,17.737 L74.128,17.737 L74.128,23 z" fill-opacity="0" stroke="#FFFFFF" stroke-width="0.2"/>
      <path d="M79.779,21.722 C80.223,22.172 80.766,22.396 81.409,22.396 C82.052,22.396 82.595,22.172 83.039,21.722 C83.483,21.272 83.706,20.698 83.706,20 C83.706,19.302 83.483,18.727 83.039,18.278 C82.595,17.828 82.052,17.603 81.409,17.603 C80.766,17.603 80.223,17.828 79.779,18.278 C79.336,18.727 79.113,19.302 79.113,20 C79.113,20.698 79.336,21.272 79.779,21.722 M83.609,22.224 C83.019,22.831 82.286,23.134 81.409,23.134 C80.532,23.134 79.799,22.831 79.21,22.224 C78.62,21.618 78.326,20.877 78.326,20 C78.326,19.123 78.62,18.381 79.21,17.775 C79.799,17.169 80.532,16.865 81.409,16.865 C82.281,16.865 83.012,17.17 83.605,17.779 C84.197,18.388 84.493,19.128 84.493,20 C84.493,20.877 84.198,21.618 83.609,22.224" fill="#FFFFFF"/>
      <path d="M79.779,21.722 C80.223,22.172 80.766,22.396 81.409,22.396 C82.052,22.396 82.595,22.172 83.039,21.722 C83.483,21.272 83.706,20.698 83.706,20 C83.706,19.302 83.483,18.727 83.039,18.278 C82.595,17.828 82.052,17.603 81.409,17.603 C80.766,17.603 80.223,17.828 79.779,18.278 C79.336,18.727 79.113,19.302 79.113,20 C79.113,20.698 79.336,21.272 79.779,21.722 z M83.609,22.224 C83.019,22.831 82.286,23.134 81.409,23.134 C80.532,23.134 79.799,22.831 79.21,22.224 C78.62,21.618 78.326,20.877 78.326,20 C78.326,19.123 78.62,18.381 79.21,17.775 C79.799,17.169 80.532,16.865 81.409,16.865 C82.281,16.865 83.012,17.17 83.605,17.779 C84.197,18.388 84.493,19.128 84.493,20 C84.493,20.877 84.198,21.618 83.609,22.224 z" fill-opacity="0" stroke="#FFFFFF" stroke-width="0.2"/>
      <path d="M85.575,23 L85.575,17 L86.513,17 L89.429,21.667 L89.463,21.667 L89.429,20.511 L89.429,17 L90.201,17 L90.201,23 L89.396,23 L86.345,18.106 L86.312,18.106 L86.345,19.263 L86.345,23 z" fill="#FFFFFF"/>
      <path d="M85.575,23 L85.575,17 L86.513,17 L89.429,21.667 L89.463,21.667 L89.429,20.511 L89.429,17 L90.201,17 L90.201,23 L89.396,23 L86.345,18.106 L86.312,18.106 L86.345,19.263 L86.345,23 L85.575,23 z" fill-opacity="0" stroke="#FFFFFF" stroke-width="0.2"/>
      <path d="M116.936,40 L118.802,40 L118.802,27.499 L116.936,27.499 z M133.743,32.002 L131.604,37.422 L131.54,37.422 L129.32,32.002 L127.31,32.002 L130.639,39.577 L128.742,43.791 L130.687,43.791 L135.818,32.002 z M123.161,38.58 C122.549,38.58 121.697,38.275 121.697,37.518 C121.697,36.554 122.758,36.184 123.675,36.184 C124.495,36.184 124.882,36.361 125.38,36.602 C125.235,37.76 124.238,38.58 123.161,38.58 M123.386,31.729 C122.035,31.729 120.635,32.324 120.057,33.643 L121.713,34.334 C122.067,33.643 122.726,33.417 123.418,33.417 C124.383,33.417 125.364,33.996 125.38,35.026 L125.38,35.154 C125.042,34.961 124.319,34.672 123.434,34.672 C121.649,34.672 119.831,35.653 119.831,37.486 C119.831,39.159 121.295,40.237 122.935,40.237 C124.19,40.237 124.882,39.674 125.316,39.014 L125.38,39.014 L125.38,39.979 L127.181,39.979 L127.181,35.186 C127.181,32.967 125.525,31.729 123.386,31.729 M111.854,33.524 L109.2,33.524 L109.2,29.239 L111.854,29.239 C113.249,29.239 114.041,30.394 114.041,31.381 C114.041,32.35 113.249,33.524 111.854,33.524 M111.806,27.499 L107.335,27.499 L107.335,40 L109.2,40 L109.2,35.264 L111.806,35.264 C113.874,35.264 115.907,33.766 115.907,31.381 C115.907,28.996 113.874,27.499 111.806,27.499 M87.425,38.582 C86.136,38.582 85.057,37.503 85.057,36.021 C85.057,34.523 86.136,33.427 87.425,33.427 C88.698,33.427 89.696,34.523 89.696,36.021 C89.696,37.503 88.698,38.582 87.425,38.582 M89.568,32.702 L89.503,32.702 C89.084,32.203 88.279,31.752 87.264,31.752 C85.137,31.752 83.188,33.62 83.188,36.021 C83.188,38.405 85.137,40.258 87.264,40.258 C88.279,40.258 89.084,39.807 89.503,39.291 L89.568,39.291 L89.568,39.904 C89.568,41.531 88.698,42.401 87.296,42.401 C86.152,42.401 85.443,41.579 85.153,40.886 L83.526,41.563 C83.993,42.691 85.234,44.076 87.296,44.076 C89.487,44.076 91.34,42.787 91.34,39.646 L91.34,32.009 L89.568,32.009 z M92.629,40 L94.498,40 L94.498,27.498 L92.629,27.498 z M97.252,35.876 C97.204,34.233 98.525,33.395 99.475,33.395 C100.217,33.395 100.845,33.765 101.054,34.297 z M103.052,34.458 C102.698,33.508 101.618,31.752 99.411,31.752 C97.22,31.752 95.4,33.475 95.4,36.005 C95.4,38.389 97.204,40.258 99.62,40.258 C101.57,40.258 102.698,39.066 103.165,38.373 L101.715,37.406 C101.232,38.115 100.571,38.582 99.62,38.582 C98.67,38.582 97.993,38.147 97.558,37.294 L103.245,34.941 z M57.744,33.057 L57.744,34.861 L62.061,34.861 C61.932,35.876 61.594,36.617 61.079,37.132 C60.45,37.761 59.467,38.454 57.744,38.454 C55.085,38.454 53.007,36.311 53.007,33.653 C53.007,30.994 55.085,28.852 57.744,28.852 C59.178,28.852 60.225,29.416 60.998,30.141 L62.271,28.868 C61.191,27.837 59.758,27.047 57.744,27.047 C54.103,27.047 51.042,30.012 51.042,33.653 C51.042,37.294 54.103,40.258 57.744,40.258 C59.709,40.258 61.191,39.613 62.351,38.405 C63.544,37.213 63.914,35.538 63.914,34.184 C63.914,33.765 63.882,33.379 63.817,33.057 z M68.823,38.582 C67.534,38.582 66.422,37.519 66.422,36.005 C66.422,34.474 67.534,33.427 68.823,33.427 C70.111,33.427 71.223,34.474 71.223,36.005 C71.223,37.519 70.111,38.582 68.823,38.582 M68.823,31.752 C66.47,31.752 64.553,33.54 64.553,36.005 C64.553,38.454 66.47,40.258 68.823,40.258 C71.175,40.258 73.092,38.454 73.092,36.005 C73.092,33.54 71.175,31.752 68.823,31.752 M78.136,38.582 C76.847,38.582 75.735,37.519 75.735,36.005 C75.735,34.474 76.847,33.427 78.136,33.427 C79.425,33.427 80.536,34.474 80.536,36.005 C80.536,37.519 79.425,38.582 78.136,38.582 M78.136,31.752 C75.784,31.752 73.867,33.54 73.867,36.005 C73.867,38.454 75.784,40.258 78.136,40.258 C80.488,40.258 82.405,38.454 82.405,36.005 C82.405,33.54 80.488,31.752 78.136,31.752" fill="#FFFFFF"/>
      <path d="M30.717,29.424 L20.07,40.724 C20.071,40.726 20.071,40.729 20.072,40.731 C20.399,41.958 21.519,42.861 22.849,42.861 C23.381,42.861 23.88,42.717 24.308,42.465 L24.342,42.445 L36.326,35.53 z" fill="#F15B44"/>
      <path d="M41.488,27.5 L41.478,27.493 L36.304,24.494 L30.475,29.681 L36.325,35.529 L41.471,32.56 C42.373,32.072 42.986,31.121 42.986,30.025 C42.986,28.935 42.382,27.989 41.488,27.5" fill="#FDC600"/>
      <path d="M20.07,19.277 C20.006,19.513 19.972,19.761 19.972,20.017 L19.972,39.985 C19.972,40.241 20.006,40.489 20.071,40.724 L31.083,29.713 z" fill="#519BF7"/>
      <path d="M30.796,30.001 L36.306,24.492 L24.336,17.552 C23.901,17.291 23.393,17.141 22.85,17.141 C21.52,17.141 20.398,18.046 20.071,19.274 C20.071,19.275 20.07,19.276 20.07,19.277 z" fill="#3DB366"/>
    </g>
  </g>
</svg>
